solid 
  facet normal 1.000000E+00 0.000000E+00 0.000000E+00
    outer loop
      vertex 1.500000E+01 -2.400000E+01 2.000000E+01
      vertex 1.500000E+01 -2.400000E+01 0.000000E+00
      vertex 1.500000E+01 -4.000000E+00 0.000000E+00
    endloop
  endfacet
  facet normal 1.000000E+00 0.000000E+00 0.000000E+00
    outer loop
      vertex 1.500000E+01 -2.400000E+01 2.000000E+01
      vertex 1.500000E+01 -4.000000E+00 0.000000E+00
      vertex 1.500000E+01 -4.000000E+00 2.000000E+01
    endloop
  endfacet
  facet normal -1.000000E+00 0.000000E+00 0.000000E+00
    outer loop
      vertex -5.000000E+00 -4.000000E+00 2.000000E+01
      vertex -5.000000E+00 -4.000000E+00 0.000000E+00
      vertex -5.000000E+00 -2.400000E+01 0.000000E+00
    endloop
  endfacet
  facet normal -1.000000E+00 0.000000E+00 0.000000E+00
    outer loop
      vertex -5.000000E+00 -4.000000E+00 2.000000E+01
      vertex -5.000000E+00 -2.400000E+01 0.000000E+00
      vertex -5.000000E+00 -2.400000E+01 2.000000E+01
    endloop
  endfacet
  facet normal 0.000000E+00 0.000000E+00 1.000000E+00
    outer loop
      vertex 1.500000E+01 -4.000000E+00 2.000000E+01
      vertex -5.000000E+00 -4.000000E+00 2.000000E+01
      vertex -5.000000E+00 -2.400000E+01 2.000000E+01
    endloop
  endfacet
  facet normal 0.000000E+00 0.000000E+00 1.000000E+00
    outer loop
      vertex 1.500000E+01 -4.000000E+00 2.000000E+01
      vertex -5.000000E+00 -2.400000E+01 2.000000E+01
      vertex 1.500000E+01 -2.400000E+01 2.000000E+01
    endloop
  endfacet
  facet normal 0.000000E+00 0.000000E+00 -1.000000E+00
    outer loop
      vertex 1.500000E+01 -2.400000E+01 0.000000E+00
      vertex -5.000000E+00 -2.400000E+01 0.000000E+00
      vertex -5.000000E+00 -4.000000E+00 0.000000E+00
    endloop
  endfacet
  facet normal 0.000000E+00 0.000000E+00 -1.000000E+00
    outer loop
      vertex 1.500000E+01 -2.400000E+01 0.000000E+00
      vertex -5.000000E+00 -4.000000E+00 0.000000E+00
      vertex 1.500000E+01 -4.000000E+00 0.000000E+00
    endloop
  endfacet
  facet normal 0.000000E+00 1.000000E+00 0.000000E+00
    outer loop
      vertex 1.500000E+01 -4.000000E+00 2.000000E+01
      vertex 1.500000E+01 -4.000000E+00 0.000000E+00
      vertex -5.000000E+00 -4.000000E+00 0.000000E+00
    endloop
  endfacet
  facet normal 0.000000E+00 1.000000E+00 0.000000E+00
    outer loop
      vertex 1.500000E+01 -4.000000E+00 2.000000E+01
      vertex -5.000000E+00 -4.000000E+00 0.000000E+00
      vertex -5.000000E+00 -4.000000E+00 2.000000E+01
    endloop
  endfacet
  facet normal 0.000000E+00 -1.000000E+00 0.000000E+00
    outer loop
      vertex -5.000000E+00 -2.400000E+01 2.000000E+01
      vertex -5.000000E+00 -2.400000E+01 0.000000E+00
      vertex 1.500000E+01 -2.400000E+01 0.000000E+00
    endloop
  endfacet
  facet normal 0.000000E+00 -1.000000E+00 0.000000E+00
    outer loop
      vertex -5.000000E+00 -2.400000E+01 2.000000E+01
      vertex 1.500000E+01 -2.400000E+01 0.000000E+00
      vertex 1.500000E+01 -2.400000E+01 2.000000E+01
    endloop
  endfacet
endsolid 
